<svg viewBox="0 0 100 100">
  <rect width="100" height="100" style="" x="1.026" y="-0.586"/>
  <path d="M 51.111 12.229 L 52.962818579 35.875451871 L 60.780560193 13.421457536 L 56.550099166 36.774573407 L 69.842546356 16.923903652 L 59.795621148 38.516321365 L 77.727560573 22.516266778 L 62.495456444 40.991255317 L 83.940158399 29.84715817 L 64.479964473 44.04386606 L 88.089979467 38.455950962 L 65.624451295 47.482346833 L 89.916275255 47.801723041 L 65.857004597 51.090645245 L 89.304292883 57.297245176 L 65.163012197 54.642038635 L 86.292485454 66.345878791 L 63.586080192 57.913379895 L 81.070095906 74.379064955 L 61.225293018 60.699118625 L 73.96526618 80.892049038 L 58.228987615 62.824216612 L 65.424418857 85.475596298 L 54.785432873 64.155146136 L 55.984206787 87.841705603 L 51.111 64.60828 L 46.237793213 87.841705603 L 47.436567127 64.155146136 L 36.797581143 85.475596298 L 43.993012385 62.824216612 L 28.25673382 80.892049038 L 40.996706982 60.699118625 L 21.151904094 74.379064955 L 38.635919808 57.913379895 L 15.929514546 66.345878791 L 37.058987803 54.642038635 L 12.917707117 57.297245176 L 36.364995403 51.090645245 L 12.305724745 47.801723041 L 36.597548705 47.482346833 L 14.132020533 38.455950962 L 37.742035527 44.04386606 L 18.281841601 29.84715817 L 39.726543556 40.991255317 L 24.494439427 22.516266778 L 42.426378852 38.516321365 L 32.379453644 16.923903652 L 45.671900834 36.774573407 L 41.441439807 13.421457536 L 49.259181421 35.875451871 Z" style="fill: rgb(255, 255, 255);"/>
</svg>