<svg viewBox="0 0 100 100">
  <rect width="100" height="100" style=""/>
  <path style="fill: rgb(255, 255, 255);" transform="matrix(-0.85501, 0.518612, -0.518612, -0.85501, 332.709045, 68.908737)" d="M 210.138 142.867 A 31.991 31.991 0 1 1 210.138 183.133 A 24.211 24.211 0 1 0 210.138 142.867 Z"/>
  <path d="M 235 190.537 L 236.755 195.585 L 242.098 195.694 L 237.839 198.922 L 239.387 204.038 L 235 200.985 L 230.613 204.038 L 232.161 198.922 L 227.902 195.694 L 233.245 195.585 Z" style="fill: rgb(255, 255, 255);" transform="matrix(-0.841178, 0.540758, -0.540758, -0.841178, 369.48288, 69.81665)"/>
  <path d="M 261 208.533 L 262.293 212.76 L 266.601 211.767 L 263.587 215 L 266.601 218.234 L 262.293 217.24 L 261 221.467 L 259.707 217.24 L 255.399 218.234 L 258.413 215 L 255.399 211.767 L 259.707 212.76 Z" style="fill: rgb(255, 255, 255);" transform="matrix(-0.83205, 0.5547, -0.5547, -0.83205, 392.19397, 82.83979)"/>
  <path d="M 251 235.996 L 252.647 240.733 L 257.661 240.836 L 253.664 243.866 L 255.117 248.666 L 251 245.802 L 246.883 248.666 L 248.336 243.866 L 244.339 240.836 L 249.353 240.733 Z" style="fill: rgb(255, 255, 255);" transform="matrix(-0.640184, 0.768221, -0.768221, -0.640184, 425.104034, 8.7765)"/>
</svg>